<?xml version="1.0" encoding="utf-8"?>
<!-- Generator: Adobe Illustrator 27.5.0, SVG Export Plug-In . SVG Version: 6.00 Build 0)  -->
<svg version="1.1" xmlns="http://www.w3.org/2000/svg" xmlns:xlink="http://www.w3.org/1999/xlink" x="0px" y="0px"
	 viewBox="0 0 750 500" style="enable-background:new 0 0 750 500;" xml:space="preserve">
<g id="BACKGROUND">
	<rect style="fill:#FFFFFF;" width="750" height="500"/>
</g>
<g id="OBJECTS">
	<ellipse style="fill:#F9F9F9;" cx="97.188" cy="451.039" rx="86.15" ry="19.812"/>
	<ellipse style="fill:#F9F9F9;" cx="285.511" cy="451.397" rx="86.15" ry="19.812"/>
	<ellipse style="fill:#F9F9F9;" cx="656.269" cy="450.821" rx="86.15" ry="19.812"/>
	<ellipse style="fill:#F9F9F9;" cx="473.317" cy="453.283" rx="86.15" ry="19.812"/>
	<g>
		<path style="fill:#EAEDEF;" d="M77.414,431.745c-0.214,4.328,0.342,8.693,1.635,12.829c1.135,3.629,2.816,7.648,1.088,11.035
			c-1.813,3.553-6.445,4.469-10.434,4.464c-3.371-0.004-6.741-0.366-10.036-1.079c-1.812-0.392-3.639-0.906-5.168-1.954
			c-1.529-1.048-2.731-2.718-2.803-4.57c-0.113-2.921,2.403-5.152,4.183-7.47c2.959-3.854,4.167-9.003,3.231-13.771
			C65.237,431.875,71.279,432.306,77.414,431.745z"/>
		<path style="fill:#EAEDEF;" d="M125.086,432.638c2.18,3.11,5.731,5.004,9.359,6.127c3.628,1.122,7.426,1.58,11.118,2.47
			c2.219,0.535,4.476,1.268,6.168,2.801c1.692,1.532,2.676,4.048,1.826,6.166c-1.074,2.677-4.361,3.584-7.22,3.964
			c-10.396,1.383-21.101,0.394-31.069-2.87c-1.329-0.435-2.751-0.995-3.455-2.202c-0.525-0.899-0.549-1.994-0.559-3.035
			c-0.038-3.908-0.076-7.815-0.115-11.723c2.291,0.034,4.272-0.703,6.484-1.299C119.835,432.44,122.971,431.757,125.086,432.638z"/>
		<path style="fill:#DD9564;" d="M220.777,139.164c-8.661,16.233-17.56,32.78-30.983,45.363c-5.294,4.962-12.346,9.481-19.368,7.656
			c-3.203-0.832-5.923-2.895-8.547-4.91c-9.346-7.175-18.692-14.351-28.038-21.527c4.943-5.059,9.784-9.773,15.003-14.547
			c7.909,6.602,16.181,13.389,24.091,19.991c1.163,0.971,2.434,1.987,3.946,2.095c2.274,0.162,4.108-1.739,5.572-3.486
			c9.708-11.583,19.017-23.5,27.905-35.723c0.408-5.037,1.038-10.177,1.446-15.214c0.046-0.568,0.103-1.167,0.431-1.634
			c0.329-0.466,1.029-0.721,1.486-0.379c0.273,0.204,0.386,0.553,0.484,0.879c0.472,1.576,0.729,4.568,1.101,6.804
			c0.072,0.432,0.687,0.448,0.784,0.021c0.853-3.78,1.9-8.834,2.676-12.112c0.419-1.771,0.993-3.67,1.639-4.713
			c0.23-0.372,1.242-1.043,2.011-0.13c0.19,0.225,0.21,1.519,0.191,1.813c-0.37,5.64-0.561,7.814-1.487,12.118
			c1.703-4.355,2.926-9.135,5.413-13.085c0.515-0.818,1.793-0.679,2.081,0.244c0.292,0.934-0.225,2.171-0.462,2.965
			c-1.151,3.845-1.893,7.501-3.304,11.259c2.956-3.016,4.728-7.05,7.384-9.32c0.451-0.386,1.251-0.388,1.665,0.036
			c0.496,0.507,0.171,1.349-0.176,1.968c-1.848,3.289-3.821,6.92-5.669,10.21c2.185-1.539,1.958-1.641,5.214-2.93
			c0.593-0.235,2.547-0.908,2.973-0.433c0.672,0.749-0.813,1.617-1.533,2.321C229.918,129.44,223.927,133.26,220.777,139.164z"/>
		<path style="fill:#DD9564;" d="M82.054,128.542c-0.353,3.544-4.205,5.478-7.529,6.757c-3.084,1.186-6.169,2.372-9.253,3.559
			c4.677,10.188,9.445,20.52,16.726,29.044c1.4,1.639,2.991,3.269,5.06,3.871c2.677,0.779,5.628-0.386,7.644-2.311
			c2.017-1.925,3.264-4.505,4.354-7.071c3.841-9.041,6.273-18.679,7.181-28.461c-2.81,0.039-5.613-1.189-7.49-3.281
			c-0.928-1.034-1.726-2.328-3.047-2.758c-0.67-0.218-1.393-0.179-2.096-0.138c-3.576,0.209-7.153,0.418-10.73,0.628"/>
		<polygon style="fill:#DD9564;" points="101.175,117.36 100.395,125.14 100.065,128.43 99.865,130.41 99.185,137.27 81.515,137.27 
			81.025,129.38 80.895,127.37 80.715,124.46 80.265,117.36 		"/>
		<path style="fill:#CCCCCC;" d="M101.176,117.361l-0.778,7.779c-4.37,1.493-9.144,1.793-13.678,0.947
			c-1.711-0.319-4.047-0.797-6.004-1.63l-0.446-7.096H101.176z"/>
		<path style="fill:#DD9564;" d="M101.915,118.94c-9.4,5.03-22,3.16-29.54-4.39c-6.02-6.03-8.57-14.73-9.55-23.2
			c-0.94-8.07-0.61-16.5,2.59-23.97c3.2-7.48,9.62-13.87,17.57-15.56c5.96-1.16,11.54-1.15,16.91,1.84
			c5.36,2.99,9.3,8.43,10.47,14.46c0.79,4.07,0.38,8.29,1.09,12.37c0.52,2.91,1.59,5.69,2.42,8.53c0.29,0.95,0.55,1.92,0.75,2.9
			c0.17,0.83,0.29,1.67,0.36,2.51C115.845,104.17,110.555,114.3,101.915,118.94z"/>
		<path style="fill:#EAEDEF;" d="M90.126,158.656c-4.746-7.297-9.205-14.796-13.71-22.244c3.726,0.724,7.497,1.214,11.284,1.464
			c5.204,0.344,10.809,0.123,15.05-2.912c-3.559,6.9-6.772,13.817-10.331,20.717C91.823,156.836,91.096,157.791,90.126,158.656z"/>
		<path style="fill:#83BEED;" d="M140.651,322.277c-0.573,21.262-7.025,90.307-11.639,111.073
			c-6.58,1.521-13.357,2.188-20.108,1.957c-1.282-0.043-2.453-0.248-3.076-1.367c1.829-34.807-4.179-129.173-6.794-163.928
			c-1.863,34.089-10.862,129.403-20.057,162.279c-7.076,2.316-15.348,2.188-22.236-0.624c-2.427-41.498-0.974-126.788-2.418-171.201
			c-0.205-6.495-0.47-12.81-0.829-18.878c24.911,1.436,50.283-0.598,74.869-4.854c1.88,6.999,3.76,14.024,5.478,21.074
			c3.47,14.28,6.247,28.705,6.879,43.361C141.027,308.203,140.839,315.244,140.651,322.277z"/>
		<path style="fill:#83BEED;" d="M38.906,254.826c-0.06-0.034-0.103-0.077-0.145-0.12l0.462-0.538
			C39.718,254.057,39.341,255.083,38.906,254.826z"/>
		<path style="fill:#CCCCCC;" d="M133.84,257.809c-25.834,3.692-52.061,4.615-78.099,2.76c-0.47-0.034-0.94-0.068-1.419-0.103
			c-0.205-6.495-0.47-12.81-0.829-18.878c24.911,1.436,50.283-0.598,74.869-4.854C130.242,243.734,132.122,250.758,133.84,257.809z"
			/>
		<path style="fill:#DD9564;" d="M63.105,261.02c-1.16,2.64-3,9.21-4.54,11.64c-13.43-4.38-27.69-19.11-34.7-31.37
			c-0.92-1.61-1.77-3.3-2.15-5.12c-0.41-1.98-0.23-4.03-0.04-6.05c1.47-15.28,3.76-30.49,6.86-45.53c0.36-1.77,0.74-3.54,1.12-5.3
			c5.65,0.02,12.78,3.3,18.34,2.31c-0.54,1.83-0.81,4.24-1.15,6.12c-0.06,0.36-0.13,0.71-0.19,1.06
			c-2.82,15.43-5.36,23.08-7.43,34.78c-0.43,2.41-0.81,4.86-0.66,7.3c0.29,4.52,2.41,8.71,4.9,12.49
			C47.755,249.87,56.725,256.52,63.105,261.02z"/>
		<path style="fill:#61AADB;" d="M56.932,275.633c3.304-5.017,5.283-10.898,5.684-16.892c0.592,1.22,0.56,2.628,0.433,3.977
			c-0.301,3.193-1.207,6.327-2.657,9.187C59.597,273.474,58.535,274.91,56.932,275.633z"/>
		<g>
			<path style="fill:#414351;" d="M129.243,441.545l-1-0.018c0.016-0.924,0.268-1.835,0.729-2.636
				c0.329-0.571,0.912-1.322,1.821-1.655c1.013-0.372,2.125-0.096,2.938,0.104l-0.241,0.971c-0.724-0.18-1.624-0.401-2.352-0.136
				c-0.628,0.229-1.053,0.787-1.299,1.215C129.462,440.045,129.256,440.79,129.243,441.545z"/>
		</g>
		<g>
			<path style="fill:#414351;" d="M134.317,443.628c-0.363-2.001,0.832-4.16,2.721-4.915c0.788-0.315,1.546-0.321,2.138-0.017
				l-0.458,0.889c-0.444-0.229-1.011-0.063-1.309,0.056c-1.439,0.575-2.384,2.284-2.107,3.81L134.317,443.628z"/>
		</g>
		<g>
			<path style="fill:#414351;" d="M140.511,445.556c-0.294-1.245-0.018-2.605,0.74-3.639c0.758-1.032,1.973-1.703,3.251-1.795
				l0.071,0.998c-0.988,0.07-1.929,0.59-2.516,1.389c-0.586,0.8-0.8,1.853-0.572,2.816L140.511,445.556z"/>
		</g>
		<path style="fill:#414351;" d="M111.138,445.441c0,0,16.199,10.251,42.718,2.841c0,0,3.292,8.838-25.491,5.942
			c-16.521-2.516-16.698-4.702-17.227-6.033C110.609,446.86,111.138,445.441,111.138,445.441z"/>
		<path style="fill:#414351;" d="M52.942,448.715c0,0,13.052,11.648,27.803,1.95c0,0,3.922,11.444-16.422,9.095
			C43.979,457.411,52.942,448.715,52.942,448.715z"/>
		<g>
			<path style="fill:#414351;" d="M72.39,447.84c-1.376-1.29-3.17-2.079-5.051-2.225c-1.881-0.138-3.774,0.363-5.333,1.426
				l-0.563-0.826c1.745-1.191,3.867-1.761,5.973-1.596c2.107,0.161,4.117,1.046,5.659,2.49L72.39,447.84z"/>
		</g>
		<g>
			<path style="fill:#414351;" d="M62.554,442.219l-0.813-0.582c0.51-0.713,1.322-1.057,2.124-1.321
				c1.726-0.571,3.16-0.811,4.521-0.747c1.716,0.077,3.267,0.674,4.364,1.682l-0.676,0.736c-0.925-0.849-2.251-1.353-3.734-1.42
				c-1.234-0.049-2.555,0.166-4.162,0.698C63.537,441.477,62.897,441.738,62.554,442.219z"/>
		</g>
		<path style="fill:#CCCCCC;" d="M47.995,181.6c-0.54,1.83-0.81,4.24-1.15,6.12c-0.06,0.36-0.13,0.71-0.19,1.06
			c-4.04,0.09-8.11-0.4-12.01-1.46c-1.05-0.29-2.08-0.62-3.07-1.05c-1.06-0.47-2.06-1.07-3.04-1.68c0.36-1.77,0.74-3.54,1.12-5.3
			C35.305,179.31,42.435,182.59,47.995,181.6z"/>
		<path style="fill:#83BEED;" d="M137.01,250.644c-1.474-25.097-9.889-59.312-11.364-84.409c4.342,2.177,9.207,4.901,13.474,7.222
			c8.492-4.681,14.715-12.963,17.134-22.352c-6.167-4.401-12.359-8.766-18.577-13.094c-2.888-2.01-5.818-4.032-9.108-5.279
			c-4.331-1.641-9.058-1.855-13.689-1.902c-5.573-0.057-6.956,0.161-12.518,0.533c-3.869,7.461-8.9,15.701-11.867,23.235
			c-3.579-7.579-9.825-14.047-14.11-22.152c-7.828,0.511-12.176,1.25-19.881,2.724c-3.338,0.639-6.748,1.404-9.573,3.292
			c-2.874,1.922-4.903,4.847-6.746,7.772c-6.488,10.297-11.55,21.493-14.994,33.166c5.507,4.014,12.685,5.776,19.375,4.473
			c1.755-0.342,3.526-0.962,5.275-1.334c3.832,19.605,3.589,50.581,0.957,70.383C75.762,259.971,112.056,257.731,137.01,250.644z"/>
		<path style="fill:#9CD7FF;" d="M76.385,132.445c0,0,14.167,20.57,14.11,22.152c0,0,6.998-16.178,11.867-23.235l4.562-0.321
			l-15.269,31.513L71.82,132.806L76.385,132.445z"/>
		<path style="fill:#9CD7FF;" d="M25.191,179.4c0,0,10.899,8.66,24.649,3.139v-3.908c0,0-10.051,4.04-23.22-3.771L25.191,179.4z"/>
		<path style="fill:#9CD7FF;" d="M139.12,173.456c0,0,13.416-6.166,17.134-22.352l-4.318-3.072c0,0-3.476,16.762-18.097,22.537
			L139.12,173.456z"/>
		<g>
			<path style="fill:#565656;" d="M81.025,129.38c-3.03-0.3-6.97,1.5-8.88,3.53c-2.34,2.49-3.62,5.85-4.56,8.8
				c-4.98,15.64-4.43,32.66-3.25,46.07c-0.66-0.01-1.33,0.04-2,0.16c-1.19-13.59-1.74-30.87,3.34-46.83
				c1.01-3.17,2.4-6.78,5.01-9.57c2.22-2.36,6.58-4.37,10.21-4.17L81.025,129.38z"/>
			<path style="fill:#565656;" d="M64.335,187.78c0.04,0.5,0.08,0.99,0.13,1.48l-1.99,0.18c-0.05-0.49-0.09-0.99-0.14-1.5
				C63.005,187.82,63.675,187.77,64.335,187.78z"/>
		</g>
		<g>
			<path style="fill:#565656;" d="M74.965,213.68l-0.15,0.51l-0.52,0.16c-1.89,0.57-3.97,0.88-6.01,0.9l-0.02-2
				c1.67-0.02,3.36-0.25,4.93-0.67c1.07-3.99,0.99-8.65-0.23-13.5c-1.11-4.38-2.96-7.26-5.5-8.55c-3.04-1.55-7.37-0.6-10.06,2.22
				c-2.39,2.51-3.7,6.29-3.68,10.65c0.02,3.76,0.96,7.5,1.93,11.13c1.29,0.02,2.78-0.04,4.33-0.43l0.48,1.95
				c-1.56,0.38-3.03,0.48-4.34,0.48c-0.45,0-0.88-0.01-1.29-0.03l-0.73-0.03l-0.19-0.71c-1.07-3.98-2.17-8.09-2.19-12.35
				c-0.02-4.88,1.48-9.16,4.24-12.04c1.76-1.84,4.04-3.02,6.37-3.43c0.67-0.12,1.34-0.17,2-0.16c1.42,0.02,2.79,0.33,4.04,0.97
				c3.08,1.56,5.27,4.87,6.52,9.84C76.265,204.01,76.295,209.22,74.965,213.68z"/>
		</g>
		<path style="fill:#565656;" d="M60.442,217.556L60.442,217.556c-0.747,0.112-1.449-0.408-1.561-1.155l-0.475-3.176
			c-0.112-0.747,0.408-1.449,1.155-1.561l0,0c0.747-0.112,1.449,0.408,1.561,1.155l0.475,3.176
			C61.708,216.742,61.189,217.444,60.442,217.556z"/>
		<path style="fill:#565656;" d="M69.268,216.894L69.268,216.894c-0.747,0.112-1.45-0.408-1.561-1.155l-0.475-3.176
			c-0.112-0.747,0.408-1.449,1.155-1.561l0,0c0.747-0.112,1.45,0.408,1.561,1.155l0.475,3.176
			C70.535,216.08,70.015,216.782,69.268,216.894z"/>
		<g>
			<path style="fill:#565656;" d="M114.375,194.69l-1.98-0.32c2.64-16.16,5.62-34.47,0.89-51.37c-1.56-5.57-3.71-9.06-6.76-10.98
				c-1.42-0.89-4.32-1.44-6.66-1.61l0.2-1.98c2.58,0.18,5.77,0.81,7.52,1.9c4.6,2.88,6.56,8.31,7.63,12.14
				C120.065,159.78,117.035,178.33,114.375,194.69z"/>
		</g>
		<circle style="fill:#565656;" cx="112.96" cy="197.721" r="7.027"/>
		<circle style="fill:#C6C6C6;" cx="112.96" cy="197.721" r="3.822"/>
		<path style="fill:none;stroke:#3F3F3F;stroke-linecap:round;stroke-miterlimit:10;" d="M98.771,84.314
			c0.37,2.606,1.217,5.144,2.488,7.449c0.206,0.374,0.494,0.787,0.921,0.806c0.212,0.009,0.414-0.085,0.625-0.105
			c0.618-0.058,1.118,0.532,1.292,1.127c0.446,1.527-0.736,3.311-2.316,3.495"/>
		<ellipse style="fill:#3F3F3F;" cx="88.494" cy="87.714" rx="2.388" ry="3.399"/>
		<path style="fill:#3F3F3F;" d="M109.438,84.314c0,1.878-1.069,3.399-2.388,3.399s-2.388-1.522-2.388-3.399s1.069-3.4,2.388-3.4
			S109.438,82.437,109.438,84.314z"/>
		<path style="fill:none;stroke:#3F3F3F;stroke-linecap:round;stroke-miterlimit:10;" d="M108.505,102.408
			c-1.125,2.386-3.406,4.194-5.985,4.744c-2.58,0.55-5.4-0.17-7.4-1.89"/>
		<path style="fill:none;stroke:#3F3F3F;stroke-linecap:round;stroke-miterlimit:10;" d="M75.451,92.401
			c-1.35-0.75-3.146-0.383-4.292,0.653c-1.145,1.036-1.69,2.62-1.725,4.164c-0.019,0.861,0.112,1.743,0.518,2.503
			c0.731,1.37,2.32,2.175,3.872,2.144c1.552-0.031,3.034-0.824,4.081-1.97"/>
		<path style="fill:none;stroke:#3F3F3F;stroke-linecap:round;stroke-miterlimit:10;" d="M73.751,94.378
			c-0.838,0.272-1.534,0.952-1.824,1.784c-0.29,0.832-0.169,1.797,0.318,2.532"/>
		<path style="fill:none;stroke:#3F3F3F;stroke-linecap:round;stroke-miterlimit:10;" d="M73.006,96.235
			c0.901,0.33,1.515,1.313,1.416,2.268"/>
		<path style="fill:none;stroke:#3F3F3F;stroke-linecap:round;stroke-miterlimit:10;" d="M101.813,77.777
			c0.921-1.013,2.227-1.667,3.59-1.8c1.363-0.133,2.77,0.257,3.87,1.073"/>
		<path style="fill:#3F3F3F;" d="M110.688,68.788c-2.692-0.318-5.123-2.503-5.742-5.142c-2.491,2.486-5.563,4.388-8.899,5.508
			c-4.525,1.52-9.543,1.639-13.714,3.96c-5.787,3.219-8.756,10.758-6.72,17.059c-2.812-0.055-5.64,1.503-6.946,3.994
			c-1.305,2.491-0.923,5.81,1.038,7.826s5.397,2.455,7.715,0.864c0.569,2.349,0.963,4.707,0.84,7.12
			c-0.123,2.413-1.041,4.899-2.957,6.371c-0.576,0.442-1.316,0.795-2.012,0.586c-3.75-1.123-5.686-5.137-7.236-8.731
			c-0.116,0.819-0.232,1.638-0.349,2.457c-3.29-3.565-5.269-8.194-6.25-12.945c-0.98-4.751-1.014-9.646-0.801-14.493
			c-0.516,0.337-1.031,0.674-1.547,1.011c-1.135-10.238,2.748-20.915,10.195-28.032c3.414-3.263,7.731-5.862,12.446-6.128
			c-0.419-0.688-0.838-1.376-1.258-2.064c0.772,0.19,1.505,0.538,2.141,1.016c0.908-1.182,2.331-1.953,3.817-2.068
			c-0.386,0.606-0.771,1.213-1.156,1.819c6.116-0.787,12.586-0.039,17.898,3.092s9.262,8.881,9.293,15.048
			c0.004,0.762,0.432,1.872,1.113,1.529C111.301,68.544,111.002,68.825,110.688,68.788z"/>
		<path style="fill:none;stroke:#3F3F3F;stroke-linecap:round;stroke-miterlimit:10;" d="M91.947,79.623
			c-1.49-1.261-3.576-1.784-5.484-1.375c-1.909,0.409-3.597,1.74-4.439,3.501"/>
		<path style="fill:#DB7965;" d="M93.655,96.753c0.139,1.699-1.57,3.226-3.819,3.41c-2.249,0.185-4.185-1.043-4.324-2.742
			c-0.139-1.699,1.57-3.226,3.819-3.41S93.515,95.054,93.655,96.753z"/>
		<path style="fill:#DB7965;" d="M114.985,94.43c-0.61,0.35-1.34,0.59-2.15,0.65c-2.25,0.19-4.18-1.04-4.32-2.74
			c-0.14-1.7,1.57-3.23,3.82-3.41c0.54-0.05,1.05-0.01,1.54,0.09c0.29,0.95,0.55,1.92,0.75,2.9
			C114.795,92.75,114.915,93.59,114.985,94.43z"/>
	</g>
	<g>
		<path style="fill:#3F3F3F;" d="M509.213,97.959c1.566,2.402,1.447,5.943-0.98,7.621c2.473,0.962,4.959,2.318,6.166,4.537
			c1.207,2.219,0.529,5.446-1.957,6.378c2.396,1.881,3.884,4.931,3.156,7.762c-0.728,2.831-4.049,5.044-7.074,4.259
			c0.608,2.217-0.456,4.741-2.524,5.989c-2.068,1.249-4.989,1.13-6.932-0.281c-0.228,2.833-4.317,4.262-7.095,3.059
			c-2.778-1.202-4.291-4.029-5.07-6.777c-2.881-10.161,1.525-20.862,7.126-29.996c1.361-2.22,3.845-6.823,6.847-7.448
			C503.78,92.458,507.831,95.839,509.213,97.959z"/>
		<path style="fill:#3F3F3F;" d="M435.41,100.197c-1.64,2.754-0.877,6.781,2.137,8.23c-2.304,1.851-4.457,4.159-4.853,6.961
			c-0.396,2.802,1.702,6.026,4.751,6.084c-2.016,2.312-2.385,5.748-0.9,8.383c1.485,2.635,4.738,4.318,7.938,4.107
			c0.687,2.749,3.234,5.018,6.225,5.546c2.991,0.528,6.26-0.715,7.989-3.038c3.047,1.403,6.905-0.776,8.126-3.72
			c1.221-2.943,0.503-6.254-0.497-9.268c-2.629-7.919-7.082-15.214-11.988-22.139c-1.146-1.618-2.349-3.25-4.013-4.42
			C445.832,93.763,438.065,95.74,435.41,100.197z"/>
		<path style="fill:#3F3F3F;" d="M485.634,433.988c0.214,4.328-0.342,8.693-1.635,12.829c-1.135,3.629-2.816,7.648-1.088,11.035
			c1.813,3.552,6.445,4.469,10.434,4.464c3.371-0.004,6.741-0.367,10.036-1.079c1.812-0.392,3.639-0.906,5.168-1.954
			c1.529-1.048,2.732-2.718,2.803-4.57c0.113-2.921-2.403-5.151-4.183-7.47c-2.959-3.855-4.167-9.003-3.231-13.771
			C497.811,434.118,491.769,434.548,485.634,433.988z"/>
		<path style="fill:#3F3F3F;" d="M437.962,434.881c-2.18,3.11-5.731,5.004-9.359,6.127c-3.628,1.122-7.426,1.58-11.118,2.47
			c-2.219,0.535-4.476,1.269-6.167,2.801c-1.692,1.532-2.676,4.048-1.826,6.166c1.074,2.677,4.361,3.584,7.22,3.964
			c10.396,1.383,21.101,0.394,31.069-2.87c1.329-0.435,2.751-0.995,3.455-2.202c0.525-0.899,0.549-1.994,0.559-3.035
			c0.038-3.908,0.077-7.815,0.115-11.723c-2.291,0.034-4.272-0.703-6.485-1.299C443.213,434.683,440.077,434,437.962,434.881z"/>
		<path style="fill:#9B6D4E;" d="M480.993,144.167c0.353,3.544,4.205,5.478,7.53,6.757c3.084,1.186,6.168,2.372,9.253,3.559
			c-4.677,10.188-9.445,20.52-16.726,29.044c-1.4,1.639-2.991,3.269-5.06,3.871c-2.677,0.779-5.628-0.386-7.644-2.311
			c-2.017-1.925-3.264-4.505-4.354-7.071c-3.841-9.041-6.273-18.679-7.181-28.461c2.81,0.039,5.613-1.189,7.49-3.281
			c0.928-1.034,1.726-2.328,3.047-2.758c0.67-0.218,1.393-0.179,2.096-0.138c3.577,0.209,7.153,0.419,10.73,0.628"/>
		<polygon style="fill:#9B6D4E;" points="461.873,132.985 462.653,140.765 462.983,144.055 463.183,146.035 463.863,152.895 
			481.533,152.895 482.023,145.005 482.153,142.995 482.333,140.085 482.783,132.985 		"/>
		<path style="fill:#CCCCCC;" d="M461.872,132.986l0.778,7.779c4.37,1.493,9.144,1.793,13.678,0.947
			c1.711-0.319,4.046-0.797,6.004-1.63l0.446-7.096H461.872z"/>
		<path style="fill:#9B6D4E;" d="M460.852,137.767c10.696,3.929,23.975,0.638,31.133-7.72c5.715-6.675,7.381-15.609,7.393-24.135
			c0.018-8.125-1.37-16.462-5.717-23.52c-4.349-7.068-12.016-12.687-20.747-13.462c-6.533-0.475-12.514,0.169-17.905,3.75
			c-5.38,3.58-8.937,9.433-9.452,15.557c-0.348,4.133,0.61,8.28,0.349,12.414c-0.201,2.95-1.007,5.834-1.548,8.75
			c-0.194,0.977-0.354,1.97-0.448,2.966c-0.08,0.844-0.106,1.692-0.078,2.535C444.104,124.676,451.019,134.139,460.852,137.767z"/>
		<path style="fill:#B1E5D6;" d="M426.334,351.548c0.573,21.262,3.087,63.28,7.702,84.046c6.58,1.521,13.357,2.188,20.108,1.957
			c1.282-0.043,2.453-0.248,3.076-1.367c-1.829-34.807,11.568-109.459,14.183-144.214c1.863,34.089,3.473,109.69,12.668,142.565
			c7.076,2.316,15.348,2.188,22.236-0.624c2.427-41.498,10.38-110.013,10.353-170.169c-0.004-8.91-4.947-16.185-4.588-22.253
			c-24.911,1.436-55.426-3.403-80.012-7.659c-1.88,6.999-1.157,11.619-2.124,23.281c-1.55,18.696-2.97,35.321-3.603,49.977
			C426.027,314.121,426.146,344.514,426.334,351.548z"/>
		<path style="fill:#83BEED;" d="M524.142,270.451c0.06-0.034,0.102-0.077,0.145-0.12l-0.462-0.538
			C523.33,269.682,523.706,270.707,524.142,270.451z"/>
		<path style="fill:#CCCCCC;" d="M429.59,274.666c25.834,3.692,51.678,3.382,77.717,1.528c0.47-0.034,8.834-0.356,9.313-0.39
			c0.041-9.796-7.424-12.523-7.065-18.59c-24.911,1.436-50.283-0.598-74.869-4.854C432.805,259.359,429.59,262.865,429.59,274.666z"
			/>
		<path style="fill:#B1E5D6;" d="M426.038,266.268c-3.915-33.819,11.364-84.409,11.364-84.409s-0.826,18.089-5.341,19.881
			c-11.051,4.387-25.442-2.696-25.442-2.696c1.956-6.41,4.083-12.774,6.329-19.087c3.096-8.704,6.154-21.679,13.973-27.394
			c6.29-4.598,13.6-6.032,21.248-6.11c5.573-0.057,6.956,0.161,12.517,0.533c0.182,0.352,0.367,0.705,0.555,1.06
			c5.332,10.112,19.896,10.343,25.294,0.266c0.043-0.08,0.086-0.161,0.129-0.242c1.196-2.261,21.917,3.185,24.598,4.267
			c16.954,6.844,19.169,29.148,23.659,44.367c-5.507,4.014-21.795,9.721-21.795,9.721l-1.821-7.01c0,0,6.511,36.744,7.587,70.368
			C493.926,276.833,450.991,273.356,426.038,266.268z"/>
		<path style="fill:none;stroke:#3F3F3F;stroke-linecap:round;stroke-miterlimit:10;" d="M451.758,122.091
			c1.499,2.243,4.166,3.779,6.999,4.032c2.833,0.253,5.768-0.783,7.702-2.719"/>
		<path style="fill:none;stroke:#3F3F3F;stroke-linecap:round;stroke-miterlimit:10;" d="M485.97,108.392
			c1.356-0.899,3.327-0.739,4.682,0.161c1.355,0.899,2.133,2.411,2.36,3.941c0.126,0.853,0.094,1.744-0.248,2.545
			c-0.616,1.444-2.22,2.425-3.889,2.571s-3.354-0.474-4.617-1.494"/>
		<path style="fill:none;stroke:#3F3F3F;stroke-linecap:round;stroke-miterlimit:10;" d="M488.035,110.163
			c0.932,0.175,1.761,0.772,2.174,1.566c0.413,0.794,0.402,1.766-0.031,2.551"/>
		<path style="fill:none;stroke:#3F3F3F;stroke-linecap:round;stroke-miterlimit:10;" d="M489.061,111.923
			c-0.926,0.431-1.463,1.477-1.24,2.414"/>
		<path style="fill:#B7715E;" d="M466.986,114.785c0.059,1.704,2.079,3.026,4.513,2.954c2.434-0.072,4.359-1.512,4.3-3.215
			c-0.059-1.704-2.079-3.026-4.513-2.954C468.853,111.642,466.927,113.081,466.986,114.785z"/>
		<path style="fill:#B7715E;" d="M443.832,114.902c0.697,0.278,1.509,0.434,2.385,0.401c2.436-0.067,4.354-1.508,4.296-3.213
			c-0.059-1.705-2.08-3.031-4.514-2.954c-0.585,0.012-1.127,0.109-1.64,0.264c-0.194,0.977-0.354,1.97-0.448,2.966
			C443.829,113.211,443.804,114.059,443.832,114.902z"/>
		<path style="fill:none;stroke:#3F3F3F;stroke-linecap:round;stroke-miterlimit:10;" d="M458.314,106.468
			c0.211,2.011-0.052,4.294-1.714,5.603c-0.734,0.578-1.699,0.925-2.256,1.655c-0.813,1.065-0.382,2.694,0.761,3.454
			c1.144,0.76,2.78,0.698,3.99,0.031"/>
		<path style="fill:none;stroke:#3F3F3F;stroke-linecap:round;stroke-miterlimit:10;" d="M465.197,105.165
			c3.018-1.912,7.381-1.756,10.232,0.365"/>
		<path style="fill:none;stroke:#3F3F3F;stroke-linecap:round;stroke-miterlimit:10;" d="M454.271,105.004
			c-0.763-1.17-2.069-2.025-3.515-2.3c-1.445-0.275-3.009,0.034-4.208,0.83"/>
		<path style="fill:#3F3F3F;" d="M490.385,132.81c3.526,0.528,7.132-1.627,8.648-4.624c1.516-2.997,1.169-6.602-0.292-9.622
			c3.054,1.005,6.618-0.831,7.991-3.551c1.373-2.72,0.888-5.995-0.514-8.702c-1.401-2.707-3.623-4.964-5.813-7.177
			c4.234-1.1,5.758-6.371,4.061-10.13c-1.697-3.759-5.522-6.267-9.235-8.45c1.744-3.795,0.717-8.538-2.472-11.416
			c-3.189-2.878-8.332-3.704-12.38-1.989c-1.764-2.735-4.923-4.659-8.333-5.073c-3.41-0.414-6.997,0.69-9.462,2.912
			c-4.295-2.124-10.038-1.349-13.501,1.822c-3.463,3.171-4.368,8.483-2.127,12.488c-3.223,0.831-5.962,3.135-7.167,6.026
			s-0.848,6.303,0.935,8.926c0.587,0.863,1.677,2.226,2.722,1.907c1.477,2.121,4.835,2.584,7.308,1.524
			c2.473-1.059,4.153-3.275,5.247-5.587c1.412,2.366,4.969,3.179,7.652,2.117c2.683-1.062,4.442-3.627,4.936-6.291
			c0.243,2.471,2.201,5.276,4.523,6.511s5.298,1.348,7.722,0.294c-0.487,2.396-0.592,4.985,0.601,7.158
			c1.193,2.173,2.803,5.368,5.296,4.588c4.311,0,6.589,1.75,7.358,5.099c0.892,3.884-1.74,7.95-5.423,7.825
			c-1.501-0.051-2.401-0.412-3.347,0c-1.667,0.727-0.926,4.346-0.831,6.051C484.663,128.573,487.045,132.31,490.385,132.81z"/>
		<path style="fill:none;stroke:#3F3F3F;stroke-linecap:round;stroke-miterlimit:10;" d="M465.733,99.674
			c1.672-0.766,3.497-1.311,5.363-1.314c1.865-0.003,3.777,0.581,5.088,1.811c0.544,0.511,0.986,1.129,1.633,1.523"/>
		<path style="fill:none;stroke:#3F3F3F;stroke-linecap:round;stroke-miterlimit:10;" d="M456.111,98.828
			c-2.598-2.348-6.926-2.841-10.06-1.146"/>
		<polygon style="fill:#CCCCCC;" points="443.52,212.439 443.03,282.441 495.956,281.688 498.536,213.57 		"/>
		<g>
			<polygon style="fill:#5A7796;" points="446.33,210.042 444.844,280.03 497.776,280.03 501.324,211.956 			"/>
			<polygon style="fill:#E2E2E2;" points="464.521,208.049 464.521,215.107 487.412,216.061 488.556,209.003 			"/>
		</g>
		<path style="fill:#9B6D4E;" d="M487.036,245.126c-26.753,7.234-46.901,7.347-70.276,2.946c-4.851-0.913-8.998-4.767-11.298-9.136
			c-1.577-2.994-1.97-6.462-2.113-9.842c-0.414-9.771,1.861-20.009,5.094-29.24c7.865,2.579,12.507,2.321,21.147,2.666
			c-0.572,6.74-0.987,9.186-1.677,16.16c-0.155,1.571-0.588,3.915-0.944,5.693c-0.28,1.401,0.595,2.771,1.985,3.098
			c9.752,2.287,45.221,10.015,57.406,4.475c1.149-2.737,3.746-5.375,6.327-6.842c0.567-0.322,1.186-0.61,1.838-0.595
			c0.652,0.015,1.336,0.417,1.478,1.054c0.102,0.459-0.087,0.928-0.288,1.353c-0.859,1.807-2.036,3.462-3.461,4.866
			c3.411-1.612,7.018-2.807,10.718-3.546c1.561-0.312,3.211-0.303,4.677,0.318c0.148,0.063,0.286,0.146,0.391,0.266
			c0.314,0.358,0.231,0.938-0.057,1.316c-0.289,0.379-0.731,0.602-1.16,0.808c-3.533,1.699-7.217,3.086-10.994,4.137
			c4.348-1.2,8.905-1.502,13.412-1.334c0.665,0.025,1.36,0.068,1.934,0.405c0.574,0.337,0.977,1.063,0.73,1.682
			c-0.265,0.662-1.078,0.877-1.779,1.005c-4.437,0.813-8.874,1.627-13.31,2.44c3.408,0.086,6.813,0.28,10.208,0.583
			c0.702,0.063,1.519,0.204,1.843,0.829c0.314,0.605-0.042,1.385-0.606,1.768c-0.564,0.383-1.272,0.468-1.951,0.534
			c-2.932,0.286-5.878,0.428-8.824,0.424c1.723,0.549,3.446,1.098,5.17,1.647c0.69,0.22,1.482,0.544,1.658,1.246
			c0.16,0.639-0.319,1.299-0.921,1.567c-0.601,0.268-1.288,0.239-1.945,0.194C496.664,247.739,491.581,246.664,487.036,245.126z"/>
		<path style="fill:#9B6D4E;" d="M534.919,196.705c0,0,0.407,60.538-1.927,90.871c-1.711,22.246-7.008,29.868-11.026,31.637
			c-1.491,0.656-2.936-1.002-2.11-2.406c1.768-3.004,4.359-8.095,3.734-11.23c-0.931-4.667-3.168,6.681-5.265,5
			c-0.959-0.769,0-8.333,3.333-17c3.333-8.667-8.535-87.15-8.535-87.15L534.919,196.705z"/>
	</g>
	<g>
		<path style="fill:#FFC299;" d="M231.696,278.789c-0.777,3.416-0.225,7.116,1.515,10.157c0.51,0.892,1.134,1.772,1.246,2.793
			c0.113,1.022-0.547,2.223-1.575,2.238c-0.612,0.009-1.148-0.39-1.608-0.793c-1.389-1.214-2.593-2.639-3.557-4.212
			c-0.257,4.268,0.689,8.602,2.701,12.375c1.158,2.171,2.716,4.416,2.342,6.848c-0.998,0.533-2.257,0.347-3.251-0.193
			c-0.994-0.54-1.779-1.387-2.545-2.22c-1.212-1.316-2.423-2.633-3.634-3.95c-2.024-2.2-4.082-4.45-5.317-7.172
			c-2.486-5.478-1.254-11.842,0.022-17.721"/>
		<polygon style="fill:#FFC299;" points="298.324,419.505 299.841,435.29 316.841,435.29 316.841,419.505 		"/>
		<polygon style="fill:#FFC299;" points="248.137,419.505 249.655,435.29 266.654,435.29 266.654,419.505 		"/>
		<path style="fill:#414351;" d="M245.628,250.357c0,0-2.747,118.223-0.57,170.925l0,0c6.741,5.979,16.778,6.329,23.919,0.833
			l1.082-0.833c0,0,7.793-113.471,9.986-150.04c0,0,4.14,107.447,14.78,154.771l25.443-4.731V257.574L245.628,250.357z"/>
		<path style="fill:#704A30;" d="M248.712,106.024c-0.534,8.723-0.891,17.904-5.46,25.354c-1.846,3.01-4.399,5.803-4.854,9.304
			c-0.725,5.584,4.242,10.366,9.423,12.573c8.786,3.743,19.406,2.826,27.421-2.367c0.594-0.384,1.196-0.816,1.519-1.445
			c0.36-0.701,0.318-1.531,0.267-2.318c-0.594-9.087-1.254-18.169-1.979-27.246c-0.975-12.202-2.103-24.554-6.252-36.071
			c-1.309-3.634-2.95-7.221-5.508-10.115c-1.684-1.905-5.993-5.715-8.876-5.086c-2.981,0.65-2.627,7.215-3.02,10.117
			C250.165,87.788,249.271,96.896,248.712,106.024z"/>
		<path style="fill:#FFC299;" d="M286.72,130.097c0.637,3.504,4.632,5.123,8.048,6.13c3.17,0.935,6.339,1.869,9.509,2.804
			c-3.844,10.531-7.766,21.213-14.339,30.294c-1.264,1.746-2.719,3.499-4.733,4.265c-2.606,0.992-5.64,0.067-7.805-1.689
			c-2.165-1.757-3.615-4.229-4.908-6.699c-4.555-8.703-7.753-18.115-9.444-27.792c2.804-0.187,5.499-1.636,7.202-3.872
			c0.842-1.105,1.534-2.459,2.816-2.994c0.65-0.271,1.374-0.29,2.078-0.306c3.582-0.079,7.164-0.157,10.745-0.236"/>
		<polygon style="fill:#FFC299;" points="266.763,120.487 268.166,128.18 268.759,131.432 269.117,133.39 270.346,140.173 
			287.959,138.754 287.814,130.85 287.782,128.836 287.727,125.921 287.606,118.808 		"/>
		<path style="fill:#CCCCCC;" d="M266.762,120.489l1.401,7.691c4.475,1.137,9.259,1.053,13.71-0.155
			c1.68-0.455,3.969-1.119,5.853-2.106l-0.125-7.109L266.762,120.489z"/>
		<path style="fill:#FFC299;" d="M266.152,122.122c9.774,4.259,22.183,1.383,29.092-6.748c5.516-6.494,7.359-15.371,7.656-23.892
			c0.289-8.119-0.717-16.496-4.507-23.685c-3.79-7.199-10.703-13.052-18.763-14.099c-6.034-0.678-11.595-0.22-16.708,3.192
			c-5.103,3.411-8.593,9.15-9.275,15.254c-0.46,4.12,0.287,8.294-0.093,12.417c-0.285,2.942-1.128,5.799-1.727,8.697
			c-0.213,0.97-0.394,1.958-0.515,2.951c-0.103,0.841-0.155,1.688-0.157,2.531C251.081,108.518,257.168,118.19,266.152,122.122z"/>
		<path style="fill:#3F3F3F;" d="M274.642,90.11c0.151,1.871,1.339,3.303,2.653,3.197c1.315-0.106,2.258-1.709,2.107-3.58
			c-0.151-1.871-1.339-3.303-2.653-3.197C275.434,86.636,274.491,88.239,274.642,90.11z"/>
		<path style="fill:#3F3F3F;" d="M255.873,88.212c0.151,1.871,1.339,3.303,2.653,3.197c1.315-0.106,2.258-1.709,2.107-3.58
			c-0.151-1.871-1.339-3.303-2.653-3.197C256.665,84.738,255.722,86.341,255.873,88.212z"/>
		<path style="fill:none;stroke:#3F3F3F;stroke-linecap:round;stroke-miterlimit:10;" d="M258.256,106.172
			c1.313,2.288,3.731,3.907,6.347,4.248c2.616,0.341,5.368-0.603,7.224-2.478"/>
		<path style="fill:none;stroke:#3F3F3F;stroke-linecap:round;stroke-miterlimit:10;" d="M290.399,93.543
			c1.286-0.856,3.105-0.635,4.33,0.306c1.225,0.941,1.895,2.476,2.053,4.012c0.088,0.857,0.028,1.746-0.315,2.536
			c-0.618,1.424-2.138,2.355-3.688,2.448c-1.55,0.094-3.09-0.577-4.226-1.636"/>
		<path style="fill:none;stroke:#3F3F3F;stroke-linecap:round;stroke-miterlimit:10;" d="M292.253,95.377
			c0.857,0.204,1.605,0.826,1.961,1.632s0.313,1.778-0.114,2.549"/>
		<path style="fill:none;stroke:#3F3F3F;stroke-linecap:round;stroke-miterlimit:10;" d="M293.144,97.168
			c-0.872,0.402-1.404,1.431-1.229,2.374"/>
		<path style="fill:none;stroke:#3F3F3F;stroke-linecap:round;stroke-miterlimit:10;" d="M262.948,81.084
			c-1-0.936-2.353-1.483-3.722-1.506c-1.369-0.023-2.74,0.479-3.771,1.38"/>
		<path style="fill:none;stroke:#3F3F3F;stroke-linecap:round;stroke-miterlimit:10;" d="M272.93,82.131
			c1.384-1.377,3.421-2.065,5.356-1.811c1.935,0.254,3.725,1.446,4.706,3.133"/>
		<path style="fill:#F7A99C;" d="M272.604,99.343c-0.003,1.705,1.824,3.089,4.081,3.093c2.256,0.004,4.087-1.375,4.09-3.08
			c0.003-1.705-1.824-3.089-4.081-3.093C274.438,96.26,272.607,97.639,272.604,99.343z"/>
		<path style="fill:#F7A99C;" d="M251.156,98.741c0.636,0.3,1.383,0.48,2.195,0.475c2.258,0.009,4.083-1.372,4.086-3.078
			c0.003-1.706-1.824-3.093-4.081-3.092c-0.542-0.006-1.048,0.074-1.528,0.213c-0.213,0.97-0.394,1.958-0.515,2.951
			C251.211,97.051,251.158,97.898,251.156,98.741z"/>
		<path style="fill:none;stroke:#704A30;stroke-miterlimit:10;" d="M267.016,54.244c-7.07,1.779-12.582,7.637-15.573,14.285
			c-2.991,6.648-3.796,14.055-4.192,21.334c-0.462,8.509-0.419,17.071-1.716,25.493s-4.043,16.836-9.446,23.425"/>
		<path style="fill:none;stroke:#704A30;stroke-miterlimit:10;" d="M253.585,74.15c5.475,0.838,11.231-0.288,15.987-3.127
			c1.414-0.844,2.879-2.09,2.87-3.737c0.903,4.432,3.459,8.503,7.017,11.295s8.125,4.27,12.644,4.092"/>
		<path style="fill:none;stroke:#3F3F3F;stroke-linecap:round;stroke-miterlimit:10;" d="M266.147,87.229
			c-0.013,1.958-0.03,3.946-0.586,5.823c-0.556,1.877-1.734,3.661-3.507,4.492c-0.236,0.111-0.5,0.221-0.619,0.453
			c-0.11,0.214-0.063,0.473,0.003,0.705c0.353,1.24,1.214,2.328,2.34,2.957"/>
		<path style="fill:#EDB4C6;" d="M255.831,273.195c0,0,1.355-53.523,1.863-80.241c0.142-7.479,2.602-24.942,0.006-31.957
			c-2.301-6.217-5.382-12.289-5.99-18.89c-0.047-0.515-0.073-1.064,0.178-1.516c0.3-0.541,0.916-0.81,1.489-1.042
			c4.077-1.65,7.991-2.326,12.068-3.976c4.895,4.355,11.34,6.931,17.888,7.151c6.337,0.213,12.724-1.783,17.821-5.551
			c2.128-1.574,5.318-1.094,6.893,1.033c1.233,1.666,1.609,3.812,1.826,5.878c1.551,14.764-0.386,29.612,1.108,44.382
			c2.07,20.459,4.655,80.15,1.842,84.73C309.419,278.736,255.831,273.195,255.831,273.195z"/>
		<path style="fill:#EAEDEF;" d="M277.061,343.779c0-41.601-1.612-108.694-2.251-143.192c-0.24-12.961-0.491-26.02-3.24-38.689
			c-1.992-9.183-5.111-17.659-8.377-26.469c-7.597,3.932-16.745,4.514-23.814,9.33c-9.568,6.519-12.844,18.895-15.209,30.229
			c-5.294,25.37-8.454,79.807-11.684,105.521c7.503,4.421,13.778,4.796,22.407,3.617c3.502-26.14,9.731-78.782,15.622-104.489
			c-3.224,10.653-4.425,22.104-5.471,33.185c-2.818,29.864-6.716,96.139-8.954,130.957H277.061z"/>
		<path style="fill:#EAEDEF;" d="M352.021,240.087c2.65-5.16,3.21-11.13,1.59-16.7c-3.98-13.67-11.51-39.83-13.29-48.4
			c-2.37-11.33-5.65-23.71-15.21-30.23c-7.07-4.81-16.22-5.4-23.82-9.33c-3.26,8.81-6.38,17.29-8.37,26.47
			c-2.75,12.67-3,25.73-3.24,38.69c-0.64,34.5-2.26,101.59-2.26,143.19h40.98c-1.05-16.35-2.47-39.64-3.97-62.84
			c0.81,0.3,1.71,0.62,2.72,0.97C337.371,267.647,346.841,250.157,352.021,240.087z M333.591,229.117c0,0-5.15,10.27-11.19,21.47
			c-1.04-14.84-2.05-28.18-2.96-37.76c-0.91-9.67-1.93-19.61-4.32-29.05C319.891,199.167,333.591,229.117,333.591,229.117z
			 M319.441,288.237c-2.32-0.24-4.38-1.55-6.33-2.83c-1.57-1.02-3.15-2.05-4.46-3.38c-0.91-0.93-1.34-2.25-1.94-3.41
			c2.34-1.68,4.52-3.57,6.51-5.65c4.21,4.38,6.01,5.89,10.14,7.55C322.011,283.077,320.711,285.647,319.441,288.237z"/>
		<path style="fill:none;stroke:#704A30;stroke-miterlimit:10;" d="M296.619,57.908c8.422,3.388,14.761,10.86,18.267,19.233
			c3.507,8.373,4.439,17.612,4.388,26.689c-0.052,9.078-1.045,18.127-1.215,27.204c-0.056,3.002-0.009,6.079,1.043,8.891
			c1.052,2.812,3.302,5.349,6.243,5.955"/>
		<path style="fill:#704A30;" d="M298.405,155.697c-6.859-5.512-10.322-14.408-11.044-23.178c-0.723-8.77,0.991-17.542,2.866-26.14
			c4.223,0.512,8.432-3.322,8.315-7.575s-4.53-7.85-8.719-7.106c0.541-3.445,0.381-7.068,0.922-10.514
			c-7.859-0.695-15.41-6.553-17.876-14.048c-5.487,4.861-12.823,7.581-20.153,7.474c-1.282-8.921,5.493-17.937,13.933-21.097
			c8.441-3.161,18.017-1.645,26.332,1.834c4.159,1.741,8.167,3.991,11.391,7.142c4.888,4.777,7.661,11.288,9.824,17.771
			c4.539,13.604,6.931,28.169,4.815,42.353c-0.588,3.942-1.522,7.862-1.504,11.848c0.019,3.986,1.132,8.172,4.024,10.915
			c0.345,0.327,0.741,0.687,0.761,1.163c0.018,0.414-0.26,0.777-0.531,1.091c-5.413,6.276-14.127,9.528-22.328,8.331
			c-0.29-0.042-0.665-0.047-0.785,0.22c-0.121,0.267,0.496,0.408,0.388,0.136"/>
		<path style="fill:#EAEDEF;" d="M340.235,450.897c0.05,1.1-0.23,2.17-0.95,3.03c-0.95,1.13-2.41,1.67-3.85,2
			c-9.26,2.17-19.03-2.26-28.38-0.49c-2.47,0.46-5.18,1.33-7.36,0.09c-1.92-1.07-2.6-3.25-2.68-5.53c-0.04-1.11,0.06-2.26,0.23-3.31
			c0.59-3.78,0.92-7.79,2.19-11.4c0.18-0.5-0.6-1.04-0.21-1.41c0.45-0.42,2.66-0.39,3.27-0.39c3.9-0.03,10.16-0.17,14.35,0.18
			c3,0.25,2.93,3.65,5.83,5.28c2.51,1.39,5.12,2.59,7.81,3.58c2.67,0.98,5.51,1.81,7.59,3.76
			C339.335,447.467,340.175,449.217,340.235,450.897z"/>
		<path style="fill:#EAEDEF;" d="M245.356,450.286c-0.918,2.373-1.972,5.029-0.964,7.366c1.031,2.39,3.818,3.448,6.375,3.935
			c3.713,0.707,7.554,0.731,11.275,0.071c2.011-0.357,4.029-0.931,5.702-2.103c1.673-1.172,2.964-3.022,3.06-5.062
			c0.061-1.299-0.353-2.567-0.729-3.813c-1.694-5.612-2.701-11.431-2.992-17.285c-0.052-1.038-15.992-0.304-17.344,0.982
			c-1.251,1.189-1.251,5.548-1.665,7.247C247.356,444.565,246.449,447.461,245.356,450.286z"/>
		<path style="fill:#FFC299;" d="M323.361,280.517c-1.35,2.56-2.65,5.13-3.92,7.72c-2.32-0.24-4.38-1.55-6.33-2.83
			c-1.57-1.02-3.15-2.05-4.46-3.38c-0.91-0.93-1.34-2.25-1.94-3.41c2.34-1.68,4.52-3.57,6.51-5.65
			C317.431,277.347,319.231,278.857,323.361,280.517z"/>
		<path style="fill:#E6E7ED;" d="M304.313,275.127c0,0,0.639,15.774,17.906,14.922L304.313,275.127z"/>
		<path style="fill:#414351;" d="M340.235,450.897c0.05,1.1-0.23,2.17-0.95,3.03c-0.95,1.13-2.41,1.67-3.85,2
			c-9.26,2.17-19.03-2.26-28.38-0.49c-2.47,0.46-5.18,1.33-7.36,0.09c-1.92-1.07-2.6-3.25-2.68-5.53
			C300.815,451.617,312.105,454.787,340.235,450.897z"/>
		<path style="fill:#414351;" d="M244.321,453.268c0,0,11.66,7.971,26.489,0.555c0,0,1.607,8.891-15.123,8.296
			C238.957,461.525,244.321,453.268,244.321,453.268z"/>
		<path style="fill:none;stroke:#414351;stroke-miterlimit:10;" d="M251.761,448.247c3.586-1.774,7.892-2.032,11.664-0.699"/>
		<path style="fill:none;stroke:#414351;stroke-miterlimit:10;" d="M252.247,441.561c0.269-0.081,0.538-0.166,0.808-0.243
			c3.042-0.863,6.369-0.682,9.3,0.505"/>
		<path style="fill:none;stroke:#414351;stroke-miterlimit:10;" d="M325.741,439.823c-1.37-0.406-2.908-0.205-4.127,0.539
			c-1.327,0.81-2.213,2.173-2.925,3.555"/>
		<path style="fill:none;stroke:#414351;stroke-miterlimit:10;" d="M332.319,442.641c-2.607-0.092-5.197,1.486-6.311,3.845"/>
	</g>
	<g>
		<path style="fill:#EAEDEF;" d="M707.185,454.856c0.063,1.1-0.288,2.17-1.189,3.03c-1.189,1.13-3.016,1.67-4.817,2
			c-11.586,2.17-23.811-2.26-35.51-0.49c-3.09,0.46-6.481,1.33-9.209,0.09c-2.402-1.07-3.253-3.25-3.353-5.53
			c-0.05-1.11,0.075-2.26,0.288-3.31c0.738-3.78,1.151-7.79,2.74-11.4c0.225-0.5-0.751-1.04-0.263-1.41
			c0.563-0.42,3.328-0.39,4.091-0.39c4.88-0.03,12.712-0.17,17.955,0.18c3.754,0.25,3.666,3.65,7.294,5.28
			c3.141,1.39,6.406,2.59,9.772,3.58c3.341,0.98,6.894,1.81,9.497,3.76C706.058,451.426,707.109,453.176,707.185,454.856z"/>
		<path style="fill:#414351;" d="M707.185,454.856c0.063,1.1-0.288,2.17-1.189,3.03c-1.189,1.13-3.016,1.67-4.817,2
			c-11.586,2.17-23.811-2.26-35.51-0.49c-3.09,0.46-6.481,1.33-9.209,0.09c-2.402-1.07-3.253-3.25-3.353-5.53
			C657.862,455.576,671.988,458.746,707.185,454.856z"/>
		<path style="fill:none;stroke:#414351;stroke-width:1.1186;stroke-miterlimit:10;" d="M689.049,443.782
			c-1.714-0.406-3.638-0.205-5.164,0.539c-1.66,0.81-2.769,2.173-3.66,3.555"/>
		<path style="fill:none;stroke:#414351;stroke-width:1.1186;stroke-miterlimit:10;" d="M697.28,446.6
			c-3.261-0.092-6.502,1.486-7.896,3.844"/>
		<path style="fill:#EAEDEF;" d="M576.975,454.431c-0.063,1.1,0.288,2.17,1.189,3.03c1.189,1.13,3.016,1.67,4.817,2
			c11.586,2.17,23.811-2.26,35.509-0.49c3.091,0.46,6.481,1.33,9.209,0.09c2.402-1.07,3.253-3.25,3.353-5.53
			c0.05-1.11-0.075-2.26-0.288-3.31c-0.738-3.78-1.151-7.79-2.74-11.4c-0.225-0.5,0.751-1.04,0.263-1.41
			c-0.563-0.42-3.328-0.39-4.091-0.39c-4.88-0.03-12.712-0.17-17.955,0.18c-3.754,0.25-3.666,3.65-7.295,5.28
			c-3.141,1.39-6.406,2.59-9.772,3.58c-3.341,0.98-6.894,1.81-9.497,3.76C578.101,451,577.05,452.75,576.975,454.431z"/>
		<path style="fill:#414351;" d="M576.975,454.431c-0.063,1.1,0.288,2.17,1.189,3.03c1.189,1.13,3.016,1.67,4.817,2
			c11.586,2.17,23.811-2.26,35.509-0.49c3.091,0.46,6.481,1.33,9.209,0.09c2.402-1.07,3.253-3.25,3.353-5.53
			C626.298,455.151,612.172,458.32,576.975,454.431z"/>
		<path style="fill:none;stroke:#414351;stroke-width:1.1186;stroke-miterlimit:10;" d="M595.11,443.356
			c1.714-0.406,3.638-0.205,5.164,0.539c1.66,0.81,2.769,2.173,3.66,3.556"/>
		<path style="fill:none;stroke:#414351;stroke-width:1.1186;stroke-miterlimit:10;" d="M586.879,446.174
			c3.261-0.092,6.502,1.486,7.896,3.845"/>
		<path style="fill:#414351;" d="M604.829,243.802l-2.875,193.219c0,0,14.564,4.288,27.216,0.578l10.133-172.226l15.237,173.737
			h25.768l1.8-194.085L604.829,243.802z"/>
		<path style="fill:#D19369;" d="M634.633,125.396c-9.939,4.097-16.852,4.76-25.032,7.259c6.12,17.777,14.414,39.395,20.534,57.172
			c1.905,5.534,4.834,11.963,10.626,12.808c2.645,0.386,5.329-0.576,7.6-1.987c7.429-4.616,10.971-13.43,13.551-21.787
			c4.274-13.841,7.224-28.212,7.109-42.697c-0.005-0.66-0.024-1.348-0.337-1.929c-0.336-0.624-0.961-1.03-1.563-1.403
			c-5.096-3.155-10.463-5.872-16.022-8.112"/>
		<g>
			<polygon style="fill:#D19369;" points="654.004,105.763 653.704,109.713 654.004,129.493 633.864,129.493 632.644,110.253 
				632.354,105.763 			"/>
			<path style="fill:#CCCCCC;" d="M654.004,105.763l-0.3,3.95c-6.52,2.72-14.16,2.46-21.06,0.54l-0.29-4.49H654.004z"/>
			<path style="fill:#D19369;" d="M668.987,79.751c0.004-1.723-0.011-3.441,0.032-5.13c0.18-7.157-0.458-14.331-3.516-20.906
				c-0.676-1.456-1.481-2.862-2.391-4.198c-1.808-3.467-4.551-6.452-7.904-8.46c-3.916-2.34-7.999-3.041-12.294-2.848
				c-4.295-0.193-8.378,0.508-12.294,2.848c-3.353,2.007-6.096,4.992-7.904,8.46c-0.91,1.336-1.715,2.742-2.391,4.198
				c-2.557,5.499-3.522,11.59-3.577,17.617c-0.124,13.511-0.163,28.08,13.851,35.036c3.804,1.888,7.176,3.997,11.409,3.758
				c4.233,0.239,9.416-1.869,13.221-3.758c5.186-2.584,9.265-7.129,11.608-12.397C668.821,89.509,668.976,84.606,668.987,79.751z"/>
			<path style="fill:#3F3F3F;" d="M652.2,71.018c0.151,1.871,1.339,3.303,2.653,3.197c1.315-0.106,2.258-1.709,2.107-3.58
				c-0.151-1.871-1.339-3.303-2.653-3.197C652.992,67.544,652.049,69.147,652.2,71.018z"/>
			<path style="fill:#3F3F3F;" d="M627.576,71.018c0.151,1.871,1.339,3.303,2.653,3.197c1.315-0.106,2.258-1.709,2.107-3.58
				c-0.151-1.871-1.339-3.303-2.653-3.197C628.369,67.544,627.426,69.147,627.576,71.018z"/>
			<path style="fill:#E08670;" d="M652.184,81.161c-0.003,1.705,1.824,3.089,4.081,3.093c2.256,0.004,4.088-1.376,4.09-3.08
				c0.003-1.704-1.824-3.089-4.081-3.093C654.018,78.077,652.187,79.456,652.184,81.161z"/>
			<path style="fill:#E08670;" d="M625.695,81.161c-0.003,1.705,1.824,3.089,4.081,3.093c2.256,0.004,4.087-1.376,4.09-3.08
				c0.003-1.704-1.824-3.089-4.081-3.093C627.529,78.077,625.697,79.456,625.695,81.161z"/>
			<path style="fill:none;stroke:#3F3F3F;stroke-linecap:round;stroke-miterlimit:10;" d="M641.831,68.388
				c0.055,2.663,0.109,5.327,0.164,7.99c0.027,1.332,0.048,2.704-0.432,3.947c-0.48,1.243-1.591,2.34-2.922,2.386
				c-0.186,0.007-0.386-0.004-0.541,0.099c-0.12,0.08-0.191,0.214-0.248,0.347c-0.49,1.136-0.273,2.544,0.537,3.479
				c0.81,0.935,2.173,1.351,3.367,1.028"/>
			<path style="fill:none;stroke:#3F3F3F;stroke-linecap:round;stroke-miterlimit:10;" d="M634.96,95.288
				c3.896,2.588,9.275,2.737,13.309,0.368"/>
			<path style="fill:none;stroke:#3F3F3F;stroke-linecap:round;stroke-miterlimit:10;" d="M648.77,63.21
				c2.639-2.761,7.333-3.238,10.474-1.065"/>
			<path style="fill:none;stroke:#3F3F3F;stroke-linecap:round;stroke-miterlimit:10;" d="M635.049,64.031
				c-3.125-2.086-7.585-1.913-10.539,0.409"/>
			<path style="fill:#D19369;" d="M619.43,71.601c-1.56-1.485-4.41-1.244-5.698,0.482c-0.811,1.087-0.986,2.514-1.037,3.87
				c-0.041,1.089-0.02,2.18,0.063,3.266c0.104,1.362,0.335,2.788,1.184,3.859c0.849,1.071,2.495,1.618,3.626,0.852"/>
			<path style="fill:#D19369;" d="M666.606,71.601c1.56-1.485,4.41-1.244,5.698,0.482c0.811,1.087,0.986,2.514,1.037,3.87
				c0.041,1.089,0.02,2.18-0.064,3.266c-0.104,1.362-0.335,2.788-1.183,3.859c-0.849,1.071-2.495,1.618-3.626,0.852"/>
			<path style="fill:#6B4F2D;" d="M668.789,70.544c2.367-11.513-1.227-24.087-9.32-32.611c-0.478-0.504-1.002-1.063-1.028-1.757
				c-0.026-0.694,0.815-1.383,1.359-0.951c-1.776-0.909-4.079-0.67-5.63,0.585c-0.345-1.158-1.388-2.076-2.58-2.272
				c-0.06,0.563-0.121,1.127-0.181,1.69c-8.17-1.94-17.553-1.921-24.069,3.376c-4.515,3.671-7.361,9.628-12.848,11.565
				c-2.651,0.936-5.547,0.767-8.353,0.586c2.499,2.723,5.769,4.731,9.327,5.729c-1.476,0.48-2.952,0.961-4.428,1.441
				c5.823,2.759,12.801,1.514,18.715-1.045c5.914-2.559,11.245-6.336,17.189-8.824c1.498-0.627,3.071-1.177,4.695-1.173
				c1.624,0.005,3.324,0.652,4.233,1.998c2.077,0.213,3.731,1.299,5.021,2.941c1.29,1.641,2.072,3.623,2.686,5.619
				c1.328,4.323,1.944,8.864,1.814,13.384C666.397,70.837,667.782,70.534,668.789,70.544z"/>
			<path style="fill:#6B4F2D;" d="M622.435,58.01c-1.987,4.814-2.964,10.043-2.851,15.25c-1.006-0.131-2.013-0.263-3.019-0.394
				c-1.187-4.858-1.016-10.04,0.489-14.809"/>
			<path style="fill:none;stroke:#3F3F3F;stroke-linecap:round;stroke-miterlimit:10;" d="M616.244,73.548
				c-0.604-0.055-1.172,0.373-1.457,0.909c-0.286,0.536-0.344,1.16-0.375,1.766c-0.037,0.703-0.044,1.408-0.023,2.112
				c0.021,0.692,0.076,1.407,0.395,2.022c0.319,0.615,0.967,1.108,1.657,1.044"/>
			<path style="fill:none;stroke:#3F3F3F;stroke-linecap:round;stroke-miterlimit:10;" d="M667.838,73.278
				c0.643-0.423,1.498-0.504,2.209-0.209c0.73,0.303,1.272,0.964,1.56,1.7c0.289,0.736,0.347,1.543,0.319,2.333
				c-0.026,0.733-0.133,1.488-0.509,2.118c-0.474,0.795-1.31,1.291-2.111,1.754"/>
			<path style="fill:none;stroke:#6B4F2D;stroke-miterlimit:10;" d="M651.514,35.554c-6.734-5.107-17.016-4.817-23.453,0.66
				c-3.373,2.87-5.619,6.832-8.675,10.038c-3.055,3.206-7.566,5.729-11.801,4.435"/>
			<path style="fill:none;stroke:#6B4F2D;stroke-miterlimit:10;" d="M658.738,37.348c3.87,1.514,6.648,5.129,7.96,9.071
				c1.312,3.943,1.323,8.201,0.952,12.339"/>
		</g>
		<path style="fill:#414351;" d="M658.274,127.613c-0.657,1.194-1.579,2.241-2.678,3.046c-0.945,0.692-2.013,1.201-3.1,1.637
			c-4.827,1.934-10.204,2.471-15.318,1.53c-2.326-0.428-4.665-1.193-6.448-2.746c-1.179-1.027-2.386-1.972-2.873-3.457
			c-3.557,4.512-5.535,9.78-5.874,15.516c-0.339,5.736,0.646,11.476,2.083,17.039c2.522,9.763,6.454,19.16,11.636,27.809
			c1.509,2.519,3.343,5.147,6.144,6.024c2.814,0.881,5.958-0.31,8.114-2.322c2.156-2.012,3.499-4.73,4.682-7.431
			c5.032-11.491,7.984-23.806,9.809-36.217c0.544-3.699,0.989-7.481,0.323-11.159C664.108,133.203,661.514,129.477,658.274,127.613z
			"/>
		<path style="fill:#EAEDEF;" d="M648.245,313.696c14.564,2.069,29.743-1.829,43.497-7.048c-0.339-16.705-2.053-33.382-5.12-49.807
			c-0.362-1.94-0.733-4.003-0.009-5.839c1.171-2.967,4.655-4.18,7.761-4.905c7.951-1.856,17.63-4.061,20.071-11.852
			c0.729-2.329,0.637-4.826,0.511-7.263c-0.97-18.799-3.52-37.516-7.614-55.889c-2.831-12.705-7.228-26.405-18.262-33.309
			c-4.691-2.935-10.384-3.625-15.522-5.68c-6.525-2.611-7.862-2.454-15.219-4.73c-3.739,22.087-11.562,43.269-14.828,65.431
			c-3.092-21.824-11.498-43.537-15.656-65.183c-12.657,1.779-19.285,4.977-30.841,10.439c-2.469,1.167-4.963,2.461-6.771,4.509
			c-2.12,2.402-3.079,5.588-3.937,8.675c-6.407,23.04-10.539,46.962-9.079,70.832c0.194,3.177,0.556,6.534,2.474,9.073
			c2.089,2.765,5.585,3.997,8.875,5.086c3.086,1.021,6.172,2.043,9.258,3.064c-4.626,21.124-8.266,42.46-10.335,63.985
			c13.058,8.128,28.285,9.692,43.659,10.138c3.307-21.764,6.776-44.112,9.571-65.948
			C642.125,270.017,649.537,291.147,648.245,313.696z"/>
		<path style="fill:#ADADAD;" d="M597.834,239.3c0,0,56.92,5.346,83.738-3.593c0,0-33.949,11.135-84.535,7.286L597.834,239.3z"/>
		<path style="fill:#ADADAD;" d="M689.352,247.952c0,0-37.209-0.212-60.719-4.15c0,0,40.56,7.943,57.98,7.201
			C686.613,251.003,687.321,248.925,689.352,247.952z"/>
		<path style="fill:#D19369;" d="M683.765,230.132c-0.399-4.694-1.138-9.359-2.209-13.947c4.584-3.641,9.355-6.457,14.69-8.868
			c0.702-0.317,1.443-0.63,2.212-0.586c0.77,0.043,1.569,0.557,1.674,1.32c0.102,0.738-0.441,1.396-0.966,1.924
			c-2.107,2.122-4.528,3.931-7.159,5.35c6.936-3.055,14.419-4.864,21.985-5.315c0.586,0.531,0.514,1.524,0.055,2.168
			c-0.459,0.644-1.197,1.021-1.909,1.366c-4.223,2.043-8.592,3.784-13.062,5.205c4.995-0.645,9.99-1.291,14.985-1.936
			c1.152-0.149,2.817,0.154,2.714,1.311c-0.066,0.742-0.89,1.134-1.595,1.372c-5.312,1.794-10.765,3.174-16.291,4.123
			c4.666-0.074,9.332-0.148,13.998-0.223c1.299-0.021,3.061,0.393,3.023,1.692c-0.034,1.138-1.468,1.59-2.598,1.725
			c-4.678,0.556-9.369,0.998-14.068,1.326c2.796,0.01,5.591,0.285,8.335,0.819c1.723,0.335,3.887,1.506,3.38,3.186
			C701.931,234.337,692.515,233.256,683.765,230.132z"/>
		<path style="fill:#ADADAD;" d="M679.772,210.726c-25.179,0.282-50.351,1.227-75.48,2.832c0.343-4.208,0.614-8.726,1.356-12.882
			c-0.036,1.811-0.04,3.742,0.939,5.266c1.488,2.315,4.609,2.813,7.354,3.008C635.727,210.496,658.297,206.743,679.772,210.726z"/>
		<path style="fill:#D19369;" d="M596.575,204.937c-6.281-0.742-12.911,0.897-17.803,4.905c-0.214,0.175-0.484,0.438-0.754,0.746
			c-0.646,0.737,0.192,1.842,1.072,1.412c2.856-1.395,6.156-2.648,9.066-2.949c-4.939,0.898-9.325,4.31-11.529,8.804
			c-0.514,1.048,0.573,2.186,1.625,1.679c0.865-0.417,1.687-1.049,2.457-1.622c2.719-2.021,5.798-3.556,9.049-4.511
			c-2.311,1.179-4.651,2.377-6.58,4.112c-1.505,1.355-2.75,3.093-3.291,5.023c-0.174,0.622,0.533,1.122,1.069,0.763l10.414-6.986
			c-1.717,2.061-4.018,4.182-5.227,6.627c-0.265,0.536,0.254,1.138,0.826,0.964c1.68-0.51,3.386-1.813,4.658-2.838
			c2.882-2.323,6.522-3.444,10.065-4.516c3.023-0.914,9.133-1.603,11.279-3.808C609.783,208.641,601.809,204.937,596.575,204.937z"
			/>
		<polygon style="fill:#ADADAD;" points="621.915,129.017 609.601,149.343 621.915,158.307 612.971,180.333 643.179,204.764 
			611.056,180.845 619.43,158.307 606.702,148.831 		"/>
		<polygon style="fill:#ADADAD;" points="664.15,129.017 676.464,149.343 664.15,158.307 673.094,180.333 642.886,204.764 
			675.009,180.845 666.635,158.307 679.362,148.831 		"/>
	</g>
</g>
</svg>
